<?xml version="1.0" encoding="utf-8"?>
<!-- Generator: Adobe Illustrator 18.0.0, SVG Export Plug-In . SVG Version: 6.00 Build 0)  -->
<!DOCTYPE svg PUBLIC "-//W3C//DTD SVG 1.1//EN" "http://www.w3.org/Graphics/SVG/1.1/DTD/svg11.dtd">
<svg version="1.1" id="Layer_1" xmlns="http://www.w3.org/2000/svg" xmlns:xlink="http://www.w3.org/1999/xlink" x="0px" y="0px"
	 viewBox="0 0 188.2 65.5" enable-background="new 0 0 188.2 65.5" xml:space="preserve">
<g>
	
		<linearGradient id="SVGID_1_" gradientUnits="userSpaceOnUse" x1="34.7474" y1="28.0603" x2="80.4888" y2="-3.9683" gradientTransform="matrix(0.9925 -0.1219 0.1219 0.9925 -33.1664 14.9142)">
		<stop  offset="0" style="stop-color:#B3B3B3"/>
		<stop  offset="0.1755" style="stop-color:#D8D8D8"/>
		<stop  offset="0.3764" style="stop-color:#FFFFFF"/>
		<stop  offset="0.6798" style="stop-color:#FFFFFF"/>
		<stop  offset="1" style="stop-color:#FFFFFF"/>
	</linearGradient>
	<path fill="url(#SVGID_1_)" d="M4.6,38.4c0,0,0.8-9.3,8.8-16.2c6.7-5.7,15-8.6,21.4-12.7c6.5-4.1,11-8.4,11-8.4l0.4,0.2
		c0,0-0.5,3.8-3.7,9.4c-1.6,2.9-5.2,7.9-13.5,11.1l-1.9,4.9c-3.6,1.5-9.2,3.3-9.2,3.3l-4.5-0.6C10.1,30.3,4.6,38.4,4.6,38.4z"/>
	
		<linearGradient id="SVGID_2_" gradientUnits="userSpaceOnUse" x1="36.0284" y1="43.6731" x2="57.298" y2="28.7799" gradientTransform="matrix(0.9925 -0.1219 0.1219 0.9925 -33.1664 14.9142)">
		<stop  offset="0" style="stop-color:#FFFFFF"/>
		<stop  offset="0.1663" style="stop-color:#F9F9F9"/>
		<stop  offset="0.3898" style="stop-color:#E8E8E8"/>
		<stop  offset="0.6457" style="stop-color:#CCCCCC"/>
		<stop  offset="0.9239" style="stop-color:#A5A5A5"/>
		<stop  offset="1" style="stop-color:#999999"/>
	</linearGradient>
	<path fill="url(#SVGID_2_)" d="M26.4,36.1L17.8,26C17.4,26.5-2.8,41.3,4.5,49.6c1.5,1.6,7,8.2,8.5,9.9c1.5,1.7,3.4,3.1,5.4,4.1
		c-0.6-0.8-1.4-2.4-1-6.1C18.3,48.6,24.7,38.6,26.4,36.1z"/>
	<g>
		
			<linearGradient id="SVGID_3_" gradientUnits="userSpaceOnUse" x1="37.5757" y1="45.8946" x2="38.9922" y2="44.9028" gradientTransform="matrix(0.9925 -0.1219 0.1219 0.9925 -33.1664 14.9142)">
			<stop  offset="0" style="stop-color:#F2F2F2"/>
			<stop  offset="1" style="stop-color:#CCCCCC"/>
		</linearGradient>
		<path fill="url(#SVGID_3_)" d="M2.9,45.7c0,1.3,0.5,2.7,1.6,3.9c1.5,1.6,7,8.2,8.5,9.9c1.5,1.7,3.5,3.3,6,4.3L2.9,45.7z"/>
	</g>
	
		<linearGradient id="SVGID_4_" gradientUnits="userSpaceOnUse" x1="52.2231" y1="56.7939" x2="68.8689" y2="21.0969" gradientTransform="matrix(0.9925 -0.1219 0.1219 0.9925 -33.1664 14.9142)">
		<stop  offset="0" style="stop-color:#FFFFFF"/>
		<stop  offset="0.1696" style="stop-color:#F9F9F9"/>
		<stop  offset="0.3863" style="stop-color:#EAEAEA"/>
		<stop  offset="0.6284" style="stop-color:#CFCFCF"/>
		<stop  offset="0.8873" style="stop-color:#ABABAB"/>
		<stop  offset="1" style="stop-color:#999999"/>
	</linearGradient>
	<path fill="url(#SVGID_4_)" d="M35.4,51.3c-1.9,0.9-3.8,1.4-5.5,1.3c-1-6.2,2.1-15.9,3.4-19.4l-8.7-10c-1.2,0.5-2.4,1-3.4,1.4
		l-3.7,29.6l10,11.3l0.3,0c5.2,0.1,11-1.4,16.4-4.3L35.4,51.3z"/>
	
		<linearGradient id="SVGID_5_" gradientUnits="userSpaceOnUse" x1="51.9963" y1="54.7447" x2="64.6503" y2="45.8843" gradientTransform="matrix(0.9925 -0.1219 0.1219 0.9925 -33.1664 14.9142)">
		<stop  offset="0" style="stop-color:#E6E6E6"/>
		<stop  offset="0.2058" style="stop-color:#DDDDDD"/>
		<stop  offset="0.5413" style="stop-color:#C4C4C4"/>
		<stop  offset="0.9627" style="stop-color:#9D9D9D"/>
		<stop  offset="1" style="stop-color:#999999"/>
	</linearGradient>
	<path fill="url(#SVGID_5_)" d="M35.4,51.3c-3.5,1.7-9.4,3.9-16.2,4l-1.8-1.1l10,11.3l0.3,0c5.2,0.1,11-1.4,16.4-4.3L35.4,51.3z"/>
	
		<linearGradient id="SVGID_6_" gradientUnits="userSpaceOnUse" x1="62.8906" y1="40.6285" x2="97.3447" y2="16.5035" gradientTransform="matrix(0.9925 -0.1219 0.1219 0.9925 -33.1664 14.9142)">
		<stop  offset="0" style="stop-color:#FFFFFF"/>
		<stop  offset="6.477726e-002" style="stop-color:#E7E7E7"/>
		<stop  offset="0.1689" style="stop-color:#C7C7C7"/>
		<stop  offset="0.2823" style="stop-color:#ADADAD"/>
		<stop  offset="0.4064" style="stop-color:#999999"/>
		<stop  offset="0.5468" style="stop-color:#8A8A8A"/>
		<stop  offset="0.717" style="stop-color:#828282"/>
		<stop  offset="1" style="stop-color:#808080"/>
	</linearGradient>
	<path fill="url(#SVGID_6_)" d="M62.2,16.1c-1.5-1.7-7.2-8.3-8.8-10.1L28.8,41.3c0,0.1,8.4,9.7,8.4,9.7c3.6,4.1,9,5.1,13.1,4
		c3.4-0.9,5.8-2.9,6.9-4C67.4,39.4,69.8,24.7,62.2,16.1z"/>
	<path fill="#007DC3" d="M43.1,8.7c-2.1,3.9-5.1,8.6-12.8,12c-0.5,0.2-1,0.4-1.5,0.6c-1.4,2.7-3.9,8.7-2.4,14.9
		c2.1,8.5,9.9,10.1,15.1,8.7c3.4-0.9,5.8-2.9,6.9-4c10.2-11.6,12.6-26.3,5-34.9c-2-2.2-4.4-3.8-7.2-4.8C46,2.1,44.8,5.6,43.1,8.7z"
		/>
	<path fill="#007DC3" d="M8.8,47.4c0.9-8.8,7.3-18.9,9-21.4c-0.7,0.3-1.4,0.6-2,1C7.4,31.4,5.2,37.4,5.2,37.4s1-4.7,3.3-8.3
		c0.4-0.6,2.6-5.4,9.6-9.8C24.9,15,29.3,13.9,36.6,9c5.8-3.9,8.7-7,9.4-7.8C36.7-2,23.9,1.3,13.6,10.4C0,22.4-4.1,39.8,4.4,49.4
		c1.5,1.7,3.4,3.1,5.4,4.1C9.2,52.8,8.5,51.1,8.8,47.4z"/>
	<path fill="#007DC3" d="M29.9,52.5c-3.1-0.2-7.2-2.6-8.6-9.4c-1.3-6.2,2-16.3,3.3-19.9c-1.2,0.5-2.3,0.9-3.3,1.4
		C20,26.9,14,38.1,15.1,48.1c0.5,4.7,2.6,6.7,4,7.5c5.2,0.1,10.9-1.4,16.4-4.3C33.4,52.2,31.6,52.6,29.9,52.5z"/>
	<path d="M100.9,32.6c0,5.8-3.4,12.4-12.3,12.4c-9.3,0-12.1-6.9-12.1-12.1c0-6.5,4-12.3,12.3-12.3C97.7,20.6,100.9,27.1,100.9,32.6z
		 M83.7,32.8c0,4,1.6,6.4,5,6.4c2.9,0,4.9-2.3,4.9-6.6c0-1.1-0.1-2.1-0.4-3c-1.1-3.2-3.9-3.3-4.5-3.3C86.1,26.3,83.7,28.1,83.7,32.8
		z"/>
	<path d="M105.9,36.3c0.6,1,1.2,1.8,3.2,2.5c0.9,0.3,2.1,0.5,3.2,0.5c0.6,0,3.4-0.1,3.4-1.7c0-0.2,0-1-1.3-1.4c-0.8-0.3-5-1-5.9-1.3
		c-2.1-0.5-6.2-1.8-6.2-6.7c0-1,0.2-2,0.6-2.9c1.5-3.4,5.3-4.7,9.4-4.7c2.6,0,5,0.5,6.9,1.5c1.7,0.8,2.6,1.7,3.4,2.6l-4.5,3.8
		c-0.4-0.5-0.7-1-1.7-1.5c-1.3-0.6-3.1-0.8-4.2-0.8c-1.2,0-2.6,0.3-2.6,1.5c0,1.1,1.2,1.4,3.1,1.7c5.1,0.9,10.1,1.8,10.1,7.4
		c0,2.4-1,4.1-2,5.1c-2.9,2.9-7.5,2.9-8.7,2.9c-1.7,0-3.5-0.2-5.3-0.7c-3.6-1-5.3-3.1-6.3-4.3L105.9,36.3z"/>
	<path d="M124.9,21.4h7.2v22.8h-7.2V21.4z"/>
	<path fill="#A7A9AC" d="M140,37.5c-2.5-0.6-5.5-1.3-5.5-4.4c0-2.8,2.4-4.5,5.9-4.5c2.9,0,6,1.4,6.5,5l-2.8,0.4
		c0-0.9-0.1-1.7-1.1-2.5c-1-0.8-2.2-0.9-2.9-0.9c-2,0-3,1.2-3,2.2c0,1.5,1.6,1.9,3.6,2.4l1.5,0.4c1.8,0.4,5.1,1.2,5.1,4.4
		c0,2.5-2.2,4.8-6.4,4.8c-1.7,0-3.5-0.4-4.7-1.2c-0.5-0.4-2-1.6-2.3-4.1l2.9-0.5c0,0.7,0,2,1.1,3c0.9,0.8,2,0.9,3.1,0.9
		c2.3,0,3.6-0.9,3.6-2.5c0-1.7-1.3-2.1-3.2-2.4L140,37.5z"/>
	<path fill="#A7A9AC" d="M155.9,44.6c-5.3,0-7.5-3.9-7.5-7.9c0-3.4,1.7-8.2,7.6-8.2c5,0,7.4,3.9,7.3,8.1
		C163.3,41.2,160.6,44.6,155.9,44.6z M160.4,34.4c-0.6-3-2.5-3.9-4.3-3.9c-3.5,0-4.8,2.7-4.8,6.2c0,3.2,1.3,5.8,4.6,5.8
		c4.3,0,4.6-4.5,4.6-6C160.6,35.6,160.5,34.9,160.4,34.4z"/>
	<path fill="#A7A9AC" d="M169,29h2.9v2.1H169v13.1h-2.5V31.1H164V29h2.6l0-3.1c0-1.3,0.1-4.3,3.9-4.3c0.7,0,1.4,0.1,1.9,0.2v2
		c-0.5-0.1-1.1-0.1-1.4-0.1c-1.9,0-1.9,1.5-1.9,2.7V29z"/>
	<path fill="#A7A9AC" d="M178.3,29h2.8v2.1h-2.8v8.7c0,1.8,0,2.6,1.1,2.6c0.5,0,1.2-0.2,1.7-0.4v2.1c-0.5,0.1-1.5,0.3-2.5,0.3
		c-3,0-3-1.5-2.9-3.5v-9.9h-2.4V29h2.4v-4.8h2.6V29z"/>
	<g>
		<path d="M182.9,41.6c0-1.5,1.2-2.6,2.7-2.6c1.4,0,2.6,1.1,2.6,2.6c0,1.5-1.2,2.6-2.6,2.6C184.1,44.2,182.9,43.1,182.9,41.6z
			 M185.5,43.8c1.2,0,2.1-0.9,2.1-2.2c0-1.2-0.9-2.2-2.1-2.2c-1.2,0-2.1,0.9-2.1,2.2C183.4,42.8,184.3,43.8,185.5,43.8z M185,43.1
			h-0.5v-3h1.2c0.7,0,1.1,0.3,1.1,0.9c0,0.5-0.3,0.8-0.8,0.8l0.9,1.3h-0.5l-0.8-1.3H185V43.1z M185.5,41.4c0.4,0,0.7,0,0.7-0.5
			c0-0.4-0.3-0.4-0.7-0.4H185v0.9H185.5z"/>
	</g>
</g>
</svg>
